<svg width="1919" height="911" viewBox="0 0 1919 911" fill="none" xmlns="http://www.w3.org/2000/svg">
<g clip-path="url(#paint0_diamond_52_21_clip_path)" data-figma-skip-parse="true"><g transform="matrix(1.041 0.229 -0.229 1.041 795 579)"><rect x="0" y="0" width="1096.81" height="757.08" fill="url(#paint0_diamond_52_21)" opacity="1" shape-rendering="crispEdges"/><rect x="0" y="0" width="1096.81" height="757.08" transform="scale(1 -1)" fill="url(#paint0_diamond_52_21)" opacity="1" shape-rendering="crispEdges"/><rect x="0" y="0" width="1096.81" height="757.08" transform="scale(-1 1)" fill="url(#paint0_diamond_52_21)" opacity="1" shape-rendering="crispEdges"/><rect x="0" y="0" width="1096.81" height="757.08" transform="scale(-1)" fill="url(#paint0_diamond_52_21)" opacity="1" shape-rendering="crispEdges"/></g></g><path d="M1919 911H0V0H1919V911ZM218 16C207.507 16 199 24.5066 199 35V872C199 882.493 207.507 891 218 891H1887C1897.49 891 1906 882.493 1906 872V35C1906 24.5066 1897.49 16 1887 16H218Z" data-figma-gradient-fill="{&#34;type&#34;:&#34;GRADIENT_DIAMOND&#34;,&#34;stops&#34;:[{&#34;color&#34;:{&#34;r&#34;:0.54117649793624878,&#34;g&#34;:0.38823530077934265,&#34;b&#34;:0.21568627655506134,&#34;a&#34;:1.0},&#34;position&#34;:0.10999999940395355},{&#34;color&#34;:{&#34;r&#34;:0.22115384042263031,&#34;g&#34;:0.13522356748580933,&#34;b&#34;:0.038276627659797668,&#34;a&#34;:1.0},&#34;position&#34;:1.0}],&#34;stopsVar&#34;:[{&#34;color&#34;:{&#34;r&#34;:0.54117649793624878,&#34;g&#34;:0.38823530077934265,&#34;b&#34;:0.21568627655506134,&#34;a&#34;:1.0},&#34;position&#34;:0.10999999940395355},{&#34;color&#34;:{&#34;r&#34;:0.22115384042263031,&#34;g&#34;:0.13522356748580933,&#34;b&#34;:0.038276627659797668,&#34;a&#34;:1.0},&#34;position&#34;:1.0}],&#34;transform&#34;:{&#34;m00&#34;:2082.0002441406250,&#34;m01&#34;:-458.00030517578125,&#34;m02&#34;:-17.000022888183594,&#34;m10&#34;:458.00027465820312,&#34;m11&#34;:2082.0002441406250,&#34;m12&#34;:-691.00030517578125},&#34;opacity&#34;:1.0,&#34;blendMode&#34;:&#34;NORMAL&#34;,&#34;visible&#34;:true}"/>
<defs>
<clipPath id="paint0_diamond_52_21_clip_path"><path d="M1919 911H0V0H1919V911ZM218 16C207.507 16 199 24.5066 199 35V872C199 882.493 207.507 891 218 891H1887C1897.49 891 1906 882.493 1906 872V35C1906 24.5066 1897.49 16 1887 16H218Z"/></clipPath><linearGradient id="paint0_diamond_52_21" x1="0" y1="0" x2="500" y2="500" gradientUnits="userSpaceOnUse">
<stop offset="0.11" stop-color="#8A6337"/>
<stop offset="1" stop-color="#38220A"/>
</linearGradient>
</defs>
</svg>
